<?xml version="1.0" encoding="utf-8"?>
<!-- Generator: Adobe Illustrator 25.0.0, SVG Export Plug-In . SVG Version: 6.00 Build 0)  -->
<svg version="1.1" id="Capa_1" xmlns="http://www.w3.org/2000/svg" xmlns:xlink="http://www.w3.org/1999/xlink" x="0px" y="0px"
	 viewBox="0 0 100 100" style="enable-background:new 0 0 100 100;" xml:space="preserve">
<style type="text/css">
	.st0{fill:#C9C9C9;}
</style>
<path class="st0" d="M27.4,76.6c0,4.6,3.8,8.4,8.5,8.4h28.3c4.7,0,8.5-3.8,8.5-8.4l5.7-44.8H21.7L27.4,76.6z M58.5,40.2h5.7v36.4
	h-5.7V40.2z M47.2,40.2h5.7v36.4h-5.7V40.2z M35.9,40.2h5.7v36.4h-5.7V40.2z M76.9,20.6H58.5c0,0-1.3-5.6-2.8-5.6H44.3
	c-1.6,0-2.8,5.6-2.8,5.6H23.1c-2.3,0-4.2,1.9-4.2,4.2s0,4.2,0,4.2h62.2c0,0,0-1.9,0-4.2S79.2,20.6,76.9,20.6z"/>
</svg>
