<?xml version="1.0" encoding="utf-8"?>
<!-- Generator: Adobe Illustrator 25.0.0, SVG Export Plug-In . SVG Version: 6.00 Build 0)  -->
<svg version="1.1" id="Layer_1" xmlns="http://www.w3.org/2000/svg" xmlns:xlink="http://www.w3.org/1999/xlink" x="0px" y="0px"
	 viewBox="0 0 100 100" style="enable-background:new 0 0 100 100;" xml:space="preserve">
<style type="text/css">
	.st0{fill:#C9C9C9;}
</style>
<g>
	<g>
		<path class="st0" d="M33,53.2l14.4,14.5l30.2-30.5L63.2,22.7L33,53.2z M66.6,33.8c1,1,1,2.6,0,3.7L49.1,55.1
			c-0.5,0.5-1.2,0.8-1.8,0.8c-0.7,0-1.3-0.3-1.8-0.8c-1-1-1-2.6,0-3.7L63,33.8C64,32.7,65.6,32.7,66.6,33.8z"/>
		<polygon class="st0" points="26.4,74.1 42.4,70 30.7,58.2 		"/>
		<path class="st0" d="M83.4,23.7l-6.8-6.9c-2-2-5.5-2-7.6,0l-2.2,2.2l14.4,14.5l2.2-2.2C85.5,29.2,85.5,25.8,83.4,23.7z"/>
	</g>
	<path class="st0" d="M77,85.3H16.7c-1.5,0-2.6-1.2-2.6-2.7V18.1c0-1.5,1.2-2.7,2.6-2.7h40.5c1.5,0,2.6,1.2,2.6,2.7
		c0,1.5-1.2,2.7-2.6,2.7H19.3V80H77c2.1,0,3.7-1.7,3.7-3.8V42.9c0-1.5,1.2-2.7,2.6-2.7c1.5,0,2.6,1.2,2.6,2.7v33.3
		C86,81.2,82,85.3,77,85.3z"/>
</g>
</svg>
