<?xml version="1.0" encoding="utf-8"?>
<!-- Generator: Adobe Illustrator 25.0.0, SVG Export Plug-In . SVG Version: 6.00 Build 0)  -->
<svg version="1.1" id="Capa_1" xmlns="http://www.w3.org/2000/svg" xmlns:xlink="http://www.w3.org/1999/xlink" x="0px" y="0px"
	 viewBox="0 0 100 100" style="enable-background:new 0 0 100 100;" xml:space="preserve">
<style type="text/css">
	.st0{fill:#FFFFFF;}
	.st1{fill:#3364AA;}
</style>
<g id="Capa_2_1_">
	<rect x="32" y="17.5" class="st0" width="36.4" height="68"/>
</g>
<g id="Layer_1">
	<g>
		<path class="st1" d="M50,5C25.2,5,5,25.2,5,50s20.2,45,45,45s45-20.2,45-45S74.8,5,50,5z M50,26c3.1,0,5.7,2.6,5.7,5.7
			s-2.6,5.7-5.7,5.7s-5.7-2.6-5.7-5.7C44.3,28.5,46.9,26,50,26z M59.9,74H40.1v-8.4h4.2v-17h-4.3v-8.4h15.6v8.4v17h4.3L59.9,74
			L59.9,74L59.9,74z"/>
		<polygon class="st1" points="73.8,88.2 93.5,93.5 88.2,73.8 		"/>
	</g>
</g>
</svg>
