<?xml version="1.0" encoding="utf-8"?>
<!-- Generator: Adobe Illustrator 25.0.0, SVG Export Plug-In . SVG Version: 6.00 Build 0)  -->
<svg version="1.1" xmlns="http://www.w3.org/2000/svg" xmlns:xlink="http://www.w3.org/1999/xlink" x="0px" y="0px"
	 viewBox="0 0 100 100" style="enable-background:new 0 0 100 100;" xml:space="preserve">
<style type="text/css">
	.st0{fill:#FFFFFF;}
	.st1{fill:#E0A42D;}
</style>
<g id="Capa_2">
	<rect x="32" y="17.5" class="st0" width="36.4" height="68"/>
</g>
<g id="Layer_1">
	<g>
		<path class="st1" d="M50,2.5C23.8,2.5,2.5,23.8,2.5,50c0,26.2,21.3,47.5,47.5,47.5c26.2,0,47.5-21.3,47.5-47.5
			C97.5,23.8,76.2,2.5,50,2.5z M50,24.7c3.3,0,6,2.7,6,6c0,3.3-2.7,6-6,6s-6-2.7-6-6C44,27.3,46.7,24.7,50,24.7z M60.4,75.3H39.6
			v-8.9H44V48.5h-4.5v-8.9H56v8.9v17.9h4.5L60.4,75.3L60.4,75.3L60.4,75.3z"/>
		<polygon class="st1" points="75.1,90.3 95.9,95.9 90.3,75.1 		"/>
	</g>
</g>
</svg>
