<?xml version="1.0" encoding="utf-8"?>
<!-- Generator: Adobe Illustrator 25.0.0, SVG Export Plug-In . SVG Version: 6.00 Build 0)  -->
<svg version="1.1" id="Layer_1" xmlns="http://www.w3.org/2000/svg" xmlns:xlink="http://www.w3.org/1999/xlink" x="0px" y="0px"
	 viewBox="0 0 100 100" style="enable-background:new 0 0 100 100;" xml:space="preserve">
<style type="text/css">
	.st0{fill:#C93636;}
	.st1{fill:#FFFFFF;}
</style>
<circle class="st0" cx="50" cy="50" r="47.5"/>
<path class="st1" d="M74.8,68l-18-18l18-18c0.3-0.3,0.3-0.7,0-1l-5.8-5.8c-0.3-0.3-0.7-0.3-1,0l-18,18l-18-18c-0.3-0.3-0.7-0.3-1,0
	l-5.8,5.8c-0.3,0.3-0.3,0.7,0,1l17.9,18l-18,18c-0.3,0.3-0.3,0.7,0,1l5.8,5.8c0.3,0.3,0.8,0.3,1,0l18-18l18,18
	c0.3,0.3,0.8,0.3,1,0.1l5.8-5.8C75.1,68.7,75.1,68.3,74.8,68z"/>
</svg>
