<?xml version="1.0" encoding="utf-8"?>
<!-- Generator: Adobe Illustrator 25.0.0, SVG Export Plug-In . SVG Version: 6.00 Build 0)  -->
<svg version="1.1" id="Capa_1" xmlns="http://www.w3.org/2000/svg" xmlns:xlink="http://www.w3.org/1999/xlink" x="0px" y="0px"
	 viewBox="0 0 24 24" style="enable-background:new 0 0 24 24;" xml:space="preserve">
<style type="text/css">
	.st0{fill:#D0EE49;}
</style>
<path class="st0" d="M3,5.2C3,4,4,3,5.2,3h13.5C20,3,21,4,21,5.2V12c-1-0.6-2.2-1-3.5-1c-3.6,0-6.5,2.9-6.5,6.5c0,1.3,0.4,2.5,1,3.5
	H5.2C4,21,3,20,3,18.8V5.2z M10.3,8.8c0.3-0.3,0.3-0.8,0-1.1c-0.3-0.3-0.8-0.3-1.1,0L7.8,9.2L7.3,8.7C7,8.4,6.5,8.4,6.2,8.7
	C5.9,9,5.9,9.5,6.2,9.8l1,1c0.3,0.3,0.8,0.3,1.1,0L10.3,8.8z M10.3,14.3c0.3-0.3,0.3-0.8,0-1.1c-0.3-0.3-0.8-0.3-1.1,0l-1.5,1.5
	l-0.5-0.5c-0.3-0.3-0.8-0.3-1.1,0c-0.3,0.3-0.3,0.8,0,1.1l1,1c0.3,0.3,0.8,0.3,1.1,0L10.3,14.3z M13.2,8.5c-0.4,0-0.8,0.3-0.8,0.8
	s0.3,0.8,0.8,0.8h3.5c0.4,0,0.8-0.3,0.8-0.8s-0.3-0.8-0.8-0.8H13.2z M23,17.5c0-3-2.5-5.5-5.5-5.5S12,14.5,12,17.5s2.5,5.5,5.5,5.5
	S23,20.5,23,17.5z M18,18l0,2.5c0,0.3-0.2,0.5-0.5,0.5c-0.3,0-0.5-0.2-0.5-0.5l0-2.5h-2.5c-0.3,0-0.5-0.2-0.5-0.5
	c0-0.3,0.2-0.5,0.5-0.5H17l0-2.5c0-0.3,0.2-0.5,0.5-0.5s0.5,0.2,0.5,0.5l0,2.5h2.5c0.3,0,0.5,0.2,0.5,0.5c0,0.3-0.2,0.5-0.5,0.5H18z
	"/>
</svg>
